<svg id="0" class="cm-icon e-text-neutral-300 group-hover:e-text-primary-100" width="66.11087680972412" height="66.11087680972412" fill="currentColor" viewBox="0 0 24 24" focusable="false" aria-hidden="true" style="margin-top: 4.58019px; padding: 0.9rem;"><path fill-rule="evenodd" clip-rule="evenodd" d="M6 9.08162C6 8.8215 6.08753 8.60385 6.2626 8.42867C6.43767 8.25348 6.64191 8.16589 6.87533 8.16589C7.11406 8.16589 7.31565 8.25348 7.48011 8.42867C7.64987 8.60385 7.73475 8.81354 7.73475 9.05773V12.0279L7.59947 15.3165L8.88859 13.8673L16.4721 6.2787C16.6578 6.0929 16.8674 6 17.1008 6C17.2599 6 17.4058 6.04512 17.5385 6.13537C17.6764 6.22031 17.7878 6.33178 17.8727 6.46981C17.9576 6.60783 18 6.75382 18 6.90776C18 7.13603 17.9072 7.34572 17.7215 7.53683L10.1459 15.1175L8.69761 16.3995L12.1194 16.288H14.9523C15.191 16.288 15.3979 16.3703 15.5729 16.5348C15.748 16.6994 15.8355 16.8985 15.8355 17.132C15.8355 17.3709 15.7507 17.5753 15.5809 17.7452C15.4111 17.9151 15.1936 18 14.9284 18H6.93899C6.65252 18 6.4244 17.9151 6.25464 17.7452C6.09019 17.5753 6.00796 17.3524 6.00796 17.0763L6 9.08162Z"></path></svg>