<?xml version="1.0" standalone="no"?>
<!DOCTYPE svg PUBLIC "-//W3C//DTD SVG 20010904//EN"
 "http://www.w3.org/TR/2001/REC-SVG-20010904/DTD/svg10.dtd">
<svg version="1.0" xmlns="http://www.w3.org/2000/svg"
 width="500.000000pt" height="500.000000pt" viewBox="0 0 500.000000 500.000000"
 preserveAspectRatio="xMidYMid meet">
<metadata>
</metadata>
<g transform="translate(0.000000,500.000000) scale(0.100000,-0.100000)"
fill="#000000" stroke="none">
<path d="M0 2500 l0 -2500 2500 0 2500 0 0 2500 0 2500 -2500 0 -2500 0 0
-2500z m984 449 c15 -12 32 -32 36 -45 9 -23 14 -24 104 -24 l95 0 38 -55 38
-54 218 -1 c186 0 217 -2 217 -15 0 -13 -32 -15 -224 -15 l-224 0 -38 60 -39
60 -88 0 c-83 0 -88 -1 -97 -24 -29 -78 -141 -88 -183 -16 -21 36 -21 64 0
100 30 52 100 66 147 29z m1104 -266 c3 -21 -1 -22 -80 -25 l-83 -3 0 -90 0
-90 83 -3 c79 -3 83 -4 80 -25 -3 -21 -8 -22 -91 -22 -118 0 -127 10 -127 137
0 134 14 149 140 145 69 -2 75 -4 78 -24z m122 -33 l0 -60 70 0 70 0 0 61 c0
57 1 60 23 57 22 -3 22 -5 22 -143 0 -138 0 -140 -22 -143 -22 -3 -23 0 -23
57 l0 61 -70 0 -70 0 0 -60 c0 -53 -2 -60 -20 -60 -19 0 -20 7 -20 145 0 138
1 145 20 145 18 0 20 -7 20 -60z m474 47 c36 -26 29 -147 -9 -147 -22 0 -19
-13 15 -68 17 -27 30 -52 30 -56 0 -4 -12 -6 -27 -4 -21 2 -34 15 -58 58 -29
52 -33 55 -73 58 l-42 3 0 -60 c0 -54 -2 -61 -20 -61 -18 0 -20 7 -20 85 l0
84 88 3 87 3 0 30 0 30 -87 3 c-86 3 -88 3 -88 27 0 25 1 25 93 25 60 0 99 -5
111 -13z m161 -132 c0 -138 0 -140 -22 -143 -23 -3 -23 -3 -23 143 0 146 0
146 23 143 22 -3 22 -5 22 -143z m290 120 c0 -18 -8 -21 -80 -25 l-80 -5 0
-30 0 -30 73 -5 c85 -6 92 -12 92 -87 0 -73 -20 -85 -131 -81 -78 3 -84 4 -87
26 -3 21 -1 22 82 22 82 0 86 1 92 24 9 38 -2 46 -70 46 -86 0 -101 13 -101
85 0 77 14 87 125 83 77 -3 85 -5 85 -23z m335 0 c0 -23 -3 -25 -50 -25 l-50
0 0 -121 c0 -119 0 -120 -22 -117 -22 3 -23 7 -26 121 l-3 117 -49 0 c-42 0
-50 3 -50 18 0 10 3 22 7 25 3 4 60 7 125 7 l118 0 0 -25z m125 -120 c0 -138
0 -140 -22 -143 -23 -3 -23 -3 -23 143 0 146 0 146 23 143 22 -3 22 -5 22
-143z m243 137 c10 -7 122 -262 122 -279 0 -2 -12 -3 -26 -1 -23 3 -31 15 -66
103 -22 55 -43 104 -47 108 -7 7 -16 -9 -48 -90 -3 -7 7 -13 24 -15 20 -2 29
-9 31 -25 3 -21 -1 -23 -38 -23 -37 0 -43 -3 -53 -30 -8 -21 -18 -30 -34 -30
-13 0 -23 5 -23 10 0 16 88 230 105 256 16 25 31 29 53 16z m337 -104 c33 -59
63 -108 68 -108 4 0 7 50 7 110 0 104 1 110 20 110 20 0 20 -5 18 -142 l-3
-143 -35 0 c-34 0 -36 3 -95 107 -33 59 -63 108 -67 108 -5 0 -8 -49 -8 -110
0 -103 -1 -110 -20 -110 -19 0 -20 7 -20 138 0 76 3 142 7 146 4 4 21 6 37 4
28 -3 37 -14 91 -110z m-2960 86 c19 -9 38 -28 45 -45 l12 -29 229 0 c197 0
229 -2 229 -15 0 -13 -32 -15 -229 -15 l-229 0 -6 -25 c-8 -31 -60 -65 -99
-65 -43 0 -97 58 -97 103 0 52 48 104 98 106 8 1 29 -6 47 -15z m-431 -165
c15 -12 32 -32 36 -45 9 -22 15 -24 78 -24 l68 0 27 -55 27 -55 124 0 124 0
26 45 27 45 204 0 c176 0 205 -2 205 -15 0 -13 -29 -15 -198 -15 l-197 0 -27
-45 -28 -45 -138 0 -138 0 -29 60 -29 60 -58 0 c-53 0 -59 -2 -68 -24 -25 -68
-103 -87 -159 -40 -27 22 -31 32 -31 74 0 42 4 52 31 74 38 32 86 34 123 5z
m1144 -171 c7 -7 12 -26 12 -43 0 -40 -16 -55 -57 -55 l-33 0 0 55 0 55 33 0
c18 0 38 -5 45 -12z m122 2 c0 -5 -18 -10 -40 -10 -22 0 -40 5 -40 10 0 6 18
10 40 10 22 0 40 -4 40 -10z m110 0 c0 -5 -13 -10 -30 -10 -38 0 -40 -18 -2
-22 23 -3 27 -8 27 -33 0 -27 -3 -30 -37 -33 -22 -2 -38 1 -38 7 0 6 16 11 35
11 24 0 35 5 35 15 0 10 -10 15 -30 15 -32 0 -47 18 -36 45 6 17 76 21 76 5z
m122 -44 c10 -27 16 -51 13 -54 -3 -3 -13 13 -22 36 -18 46 -28 52 -36 22 -3
-11 -1 -20 4 -20 5 0 9 -4 9 -10 0 -5 -6 -10 -14 -10 -8 0 -16 -6 -19 -12 -2
-7 -7 -10 -11 -6 -10 9 35 109 47 105 5 -1 18 -25 29 -51z m135 38 c3 -9 1
-24 -4 -33 -7 -12 -8 -23 -1 -35 5 -10 7 -20 4 -23 -3 -3 -11 6 -17 21 -16 35
-46 34 -52 -1 -3 -23 -4 -21 -6 10 -1 35 1 37 29 37 17 0 30 5 30 10 0 6 -13
10 -30 10 -16 0 -30 5 -30 10 0 17 70 12 77 -6z m120 0 c3 -9 1 -24 -4 -33 -7
-12 -8 -23 -1 -35 5 -10 7 -20 4 -23 -3 -3 -11 6 -17 21 -16 35 -46 34 -52 -1
-3 -23 -4 -21 -6 10 -1 35 1 37 29 37 17 0 30 5 30 10 0 6 -13 10 -30 10 -16
0 -30 5 -30 10 0 17 70 12 77 -6z m128 -39 l0 -50 -40 0 c-39 0 -40 1 -43 39
-5 58 2 68 45 64 l38 -3 0 -50z m86 -35 c16 0 29 -5 29 -11 0 -6 -14 -9 -32
-7 -33 3 -33 3 -34 58 -1 51 -1 52 3 8 4 -45 6 -48 34 -48z m79 45 c0 -43 1
-45 30 -45 17 0 30 -4 30 -10 0 -14 -54 -12 -68 2 -14 14 -16 98 -2 98 6 0 10
-20 10 -45z m178 33 c7 -7 12 -26 12 -43 0 -38 -16 -55 -50 -55 -34 0 -50 17
-50 55 0 38 16 55 50 55 14 0 31 -5 38 -12z m143 -30 l12 -43 13 30 c7 17 13
36 14 43 0 27 24 5 35 -34 l12 -39 12 30 c6 17 14 36 17 44 2 8 7 11 10 8 10
-9 -27 -108 -39 -104 -6 2 -16 19 -22 38 l-12 34 -17 -39 c-10 -25 -20 -36
-26 -30 -14 14 -40 104 -29 104 4 0 14 -19 20 -42z m239 32 c0 -5 -16 -10 -35
-10 -19 0 -35 5 -35 10 0 6 16 10 35 10 19 0 35 -4 35 -10z m121 3 c14 -81 5
-103 -42 -103 l-39 0 0 55 0 55 40 0 c22 0 41 -3 41 -7z m-1461 -43 c0 -5 -13
-10 -30 -10 -20 0 -30 -5 -30 -15 0 -10 10 -15 30 -15 17 0 30 -4 30 -10 0
-14 -54 -12 -68 2 -7 7 -12 22 -12 35 0 20 5 23 40 23 22 0 40 -4 40 -10z
m1340 0 c0 -5 -14 -10 -31 -10 -38 0 -35 -24 4 -28 39 -5 33 -24 -5 -20 -29 3
-33 7 -36 36 -3 31 -2 32 32 32 20 0 36 -4 36 -10z m-1660 -60 c0 -6 -45 -10
-114 -10 l-115 0 -33 -60 -33 -60 -177 0 c-167 0 -177 -1 -183 -20 -10 -33
-63 -70 -100 -70 -41 0 -91 39 -100 79 -13 62 35 121 100 121 48 0 78 -18 95
-60 l12 -30 167 0 166 0 34 60 35 60 123 0 c75 0 123 -4 123 -10z"/>
<path d="M893 2935 c-58 -24 -56 -107 2 -131 42 -17 92 4 101 42 17 66 -41
115 -103 89z"/>
<path d="M1126 2649 c-51 -40 -23 -129 42 -129 60 0 95 56 68 109 -24 46 -67
54 -110 20z"/>
<path d="M671 2484 c-42 -54 -13 -118 54 -118 44 0 75 30 75 73 0 67 -88 97
-129 45z"/>
<path d="M1870 2305 c0 -31 3 -35 25 -35 22 0 25 4 25 35 0 31 -3 35 -25 35
-22 0 -25 -4 -25 -35z"/>
<path d="M2594 2326 c-12 -31 0 -51 31 -51 27 0 30 3 30 30 0 25 -4 30 -28 33
-17 2 -29 -2 -33 -12z"/>
<path d="M2940 2305 c0 -32 2 -35 30 -35 28 0 30 3 30 35 0 32 -2 35 -30 35
-28 0 -30 -3 -30 -35z"/>
<path d="M3440 2305 c0 -32 2 -35 30 -35 20 0 30 5 30 15 0 8 -9 15 -20 15
-11 0 -20 5 -20 10 0 6 9 10 20 10 11 0 20 5 20 10 0 6 -13 10 -30 10 -28 0
-30 -3 -30 -35z"/>
<path d="M945 2198 c-48 -28 -57 -70 -24 -112 41 -52 129 -23 129 43 0 55 -61
95 -105 69z"/>
</g>
</svg>
